# xmcd
#
# Track frame offsets:
#	150
#	22925
#	45912
#	63982
#	84960
#	105432
#	129987
#	153192
#	169684
#	190222
#
# Disc length: 2813 seconds
#
# Revision: 0
# Processed by: cddbd v1.4PL0 Copyright (c) Steve Scherf et al.
# Submitted via: EasyCDDAExtractor 5.0.4.1
#
DISCID=660afb0a
DTITLE=Various Artist - 直觉
DYEAR=1998
DGENRE=soundtrack
TTITLE0=张信哲 - 信
TTITLE1=Jeff Zhang - 我相信
TTITLE2=Jeff Zhang - 爱的证据
TTITLE3=Jeff Zhang - 很快
TTITLE4=Jeff Zhang - 绝不再失去你
TTITLE5=Jeff Zhang - 直觉
TTITLE6=Jeff Zhang - 雨后
TTITLE7=Jeff Zhang - 男人说法
TTITLE8=Jeff Zhang - 两个小孩子
TTITLE9=Jeff Zhang - 心情卡片
EXTD=
EXTT0=
EXTT1=
EXTT2=
EXTT3=
EXTT4=
EXTT5=
EXTT6=
EXTT7=
EXTT8=
EXTT9=
PLAYORDER=
